<svg xmlns="http://www.w3.org/2000/svg" width="15.109" height="20.72"><defs><clipPath id="a"><path data-name="長方形 943" fill="none" d="M0 0h15.11v20.72H0z"/></clipPath></defs><g data-name="グループ 150" transform="translate(0 .001)" clip-path="url(#a)"><path data-name="パス 236" d="M4.668 6.858c1-.6 1.816-1.139 2.1-1.3s.269-.593.031-.993L4.58.842C4.27.324 3.93-.206 3.448.081S2.61.579 1.37 1.32s-2.885 4.888 1.425 12.123 8.744 7.767 9.985 7.03 1.6-.953 2.079-1.237.178-.838-.132-1.36c0 0-1.977-3.317-2.214-3.718s-.61-.613-.89-.447-1.143.628-2.143 1.223-2.114-.908-3.565-3.348-2.247-4.134-1.247-4.728" fill="#6a6a6a"/></g></svg>