<svg xmlns="http://www.w3.org/2000/svg" width="30.431" height="31.967"><path data-name="パス 242" d="M13.855 4.9H8.817a.615.615 0 010-1.23h5.033a.615.615 0 110 1.23z" fill="#fff"/><path data-name="パス 243" d="M27.072 31.967H3.358A3.363 3.363 0 010 28.607V7.031a3.363 3.363 0 013.358-3.36H6.1a.615.615 0 010 1.229H3.358a2.132 2.132 0 00-2.129 2.131v21.575a2.132 2.132 0 002.129 2.131h23.714a2.132 2.132 0 002.128-2.131V7.031A2.132 2.132 0 0027.072 4.9H24.33a.615.615 0 010-1.229h2.743a3.363 3.363 0 013.358 3.36v21.575a3.363 3.363 0 01-3.359 3.361z" fill="#fff"/><path data-name="パス 244" d="M21.609 4.9h-5.033a.615.615 0 110-1.23h5.033a.615.615 0 010 1.23z" fill="#fff"/><path data-name="パス 245" d="M6.449 16.714H4.594a1.244 1.244 0 01-1.243-1.243v-1.857a1.245 1.245 0 011.243-1.242h1.855a1.245 1.245 0 011.243 1.243v1.857a1.244 1.244 0 01-1.243 1.242zm-1.855-3.112a.016.016 0 00-.013.013v1.857a.016.016 0 00.013.013h1.855a.016.016 0 00.013-.013v-1.858a.016.016 0 00-.013-.013z" fill="#fff"/><path data-name="パス 246" d="M12.909 16.714h-1.854a1.244 1.244 0 01-1.243-1.243v-1.857a1.244 1.244 0 011.244-1.242h1.854a1.244 1.244 0 011.243 1.243v1.857a1.244 1.244 0 01-1.244 1.242zm-1.855-3.112a.015.015 0 00-.013.013v1.857a.015.015 0 00.013.013h1.855a.015.015 0 00.013-.013v-1.858a.015.015 0 00-.013-.013z" fill="#fff"/><path data-name="パス 247" d="M19.373 16.714h-1.854a1.244 1.244 0 01-1.243-1.243v-1.857a1.244 1.244 0 011.244-1.242h1.855a1.244 1.244 0 011.243 1.243v1.857a1.244 1.244 0 01-1.245 1.242zm-1.854-3.112a.015.015 0 00-.013.013v1.857a.015.015 0 00.013.013h1.855a.015.015 0 00.013-.013v-1.858a.015.015 0 00-.013-.013z" fill="#fff"/><path data-name="パス 248" d="M25.837 16.714h-1.855a1.244 1.244 0 01-1.243-1.243v-1.857a1.244 1.244 0 011.243-1.242h1.855a1.244 1.244 0 011.243 1.243v1.857a1.244 1.244 0 01-1.243 1.242zm-1.855-3.112a.015.015 0 00-.013.013v1.857a.015.015 0 00.013.013h1.855a.015.015 0 00.013-.013v-1.858a.015.015 0 00-.013-.013z" fill="#fff"/><path data-name="パス 249" d="M6.449 22.836H4.594a1.244 1.244 0 01-1.243-1.243v-1.857a1.245 1.245 0 011.243-1.243h1.855a1.244 1.244 0 011.243 1.243v1.857a1.244 1.244 0 01-1.243 1.243zm-1.855-3.112a.016.016 0 00-.013.013v1.855a.016.016 0 00.013.013h1.855a.016.016 0 00.013-.013v-1.857a.016.016 0 00-.013-.013z" fill="#fff"/><path data-name="パス 250" d="M12.909 22.836h-1.853a1.244 1.244 0 01-1.243-1.243v-1.857a1.244 1.244 0 011.243-1.243h1.853a1.244 1.244 0 011.243 1.243v1.857a1.244 1.244 0 01-1.243 1.243zm-1.855-3.112a.015.015 0 00-.013.013v1.855a.015.015 0 00.013.013h1.855a.015.015 0 00.013-.013v-1.857a.015.015 0 00-.013-.013z" fill="#fff"/><path data-name="パス 251" d="M19.374 22.836h-1.853a1.244 1.244 0 01-1.245-1.243v-1.857a1.244 1.244 0 011.245-1.243h1.855a1.244 1.244 0 011.243 1.243v1.857a1.244 1.244 0 01-1.245 1.243zm-1.855-3.112a.015.015 0 00-.013.013v1.855a.016.016 0 00.013.013h1.855a.015.015 0 00.013-.013v-1.857a.015.015 0 00-.013-.013z" fill="#fff"/><path data-name="パス 252" d="M25.837 22.836h-1.855a1.244 1.244 0 01-1.243-1.243v-1.857a1.244 1.244 0 011.243-1.243h1.855a1.244 1.244 0 011.243 1.243v1.857a1.244 1.244 0 01-1.243 1.243zm-1.855-3.112a.015.015 0 00-.013.013v1.855a.015.015 0 00.013.013h1.855a.015.015 0 00.013-.013v-1.857a.015.015 0 00-.013-.013z" fill="#fff"/><path data-name="パス 253" d="M6.449 28.959H4.594a1.245 1.245 0 01-1.243-1.243v-1.858a1.245 1.245 0 011.243-1.243h1.855a1.245 1.245 0 011.243 1.243v1.857a1.245 1.245 0 01-1.243 1.244zm-1.855-3.114a.016.016 0 00-.013.014v1.857a.016.016 0 00.013.014h1.855a.016.016 0 00.013-.014v-1.858a.016.016 0 00-.013-.013z" fill="#fff"/><path data-name="パス 254" d="M12.909 28.959h-1.854a1.245 1.245 0 01-1.243-1.243v-1.858a1.244 1.244 0 011.243-1.243h1.854a1.244 1.244 0 011.244 1.243v1.857a1.244 1.244 0 01-1.244 1.244zm-1.855-3.114a.016.016 0 00-.013.014v1.857a.016.016 0 00.013.014h1.855a.016.016 0 00.013-.014v-1.858a.015.015 0 00-.013-.013z" fill="#fff"/><path data-name="パス 255" d="M19.373 28.956h-1.854a1.245 1.245 0 01-1.243-1.243v-1.857a1.244 1.244 0 011.243-1.243h1.855a1.244 1.244 0 011.241 1.243v1.857a1.245 1.245 0 01-1.242 1.243zm-1.854-3.114a.015.015 0 00-.013.013v1.857a.016.016 0 00.013.014h1.855a.016.016 0 00.013-.014v-1.856a.015.015 0 00-.013-.013z" fill="#fff"/><path data-name="パス 256" d="M25.837 28.959h-1.855a1.245 1.245 0 01-1.243-1.243v-1.858a1.244 1.244 0 011.243-1.243h1.855a1.244 1.244 0 011.243 1.243v1.857a1.245 1.245 0 01-1.243 1.244zm-1.855-3.114a.016.016 0 00-.013.014v1.857a.016.016 0 00.013.014h1.855a.016.016 0 00.013-.014v-1.858a.015.015 0 00-.013-.013z" fill="#fff"/><path data-name="パス 257" d="M29.815 10.592H.615a.615.615 0 010-1.23h29.2a.615.615 0 010 1.23z" fill="#fff"/><path data-name="パス 258" d="M7.488 8.527h-.053a1.951 1.951 0 01-1.949-1.948V1.948A1.951 1.951 0 017.435 0h.053a1.951 1.951 0 011.949 1.948v4.631a1.951 1.951 0 01-1.949 1.948zm-.053-7.3a.72.72 0 00-.719.719v4.631a.72.72 0 00.719.719h.053a.72.72 0 00.719-.719V1.948a.72.72 0 00-.719-.719z" fill="#fff"/><path data-name="パス 259" d="M15.242 8.527h-.053a1.951 1.951 0 01-1.949-1.948V1.948A1.951 1.951 0 0115.189 0h.053a1.951 1.951 0 011.948 1.948v4.631a1.951 1.951 0 01-1.948 1.948zm-.053-7.3a.72.72 0 00-.719.719v4.631a.72.72 0 00.719.719h.053a.72.72 0 00.719-.719V1.948a.72.72 0 00-.719-.719z" fill="#fff"/><path data-name="パス 260" d="M22.997 8.527h-.053a1.951 1.951 0 01-1.948-1.948V1.948A1.951 1.951 0 0122.943 0h.053a1.951 1.951 0 011.949 1.948v4.631a1.951 1.951 0 01-1.948 1.948zm-.053-7.3a.72.72 0 00-.719.719v4.631a.72.72 0 00.719.719h.053a.72.72 0 00.719-.719V1.948a.72.72 0 00-.719-.719z" fill="#fff"/></svg>