<svg id="アイコン" xmlns="http://www.w3.org/2000/svg" width="30.431" height="31.967" viewBox="0 0 30.431 31.967">
  <path id="パス_242" data-name="パス 242" d="M323.238,180.75H318.2a.615.615,0,0,1,0-1.23h5.033a.615.615,0,1,1,0,1.23Z" transform="translate(-309.383 -175.85)" fill="#fff"/>
  <path id="パス_243" data-name="パス 243" d="M131.072,207.836H107.358a3.363,3.363,0,0,1-3.358-3.36V182.9a3.363,3.363,0,0,1,3.358-3.36H110.1a.615.615,0,0,1,0,1.229h-2.742a2.132,2.132,0,0,0-2.129,2.131v21.575a2.132,2.132,0,0,0,2.129,2.131h23.714a2.132,2.132,0,0,0,2.128-2.131V182.9a2.132,2.132,0,0,0-2.128-2.131H128.33a.615.615,0,0,1,0-1.229h2.743a3.363,3.363,0,0,1,3.358,3.36v21.575A3.363,3.363,0,0,1,131.072,207.836Z" transform="translate(-104 -175.869)" fill="#fff"/>
  <path id="パス_244" data-name="パス 244" d="M525.068,180.75h-5.033a.615.615,0,1,1,0-1.23h5.033a.615.615,0,0,1,0,1.23Z" transform="translate(-503.459 -175.85)" fill="#fff"/>
  <path id="パス_245" data-name="パス 245" d="M194.308,410.342h-1.855a1.244,1.244,0,0,1-1.243-1.243v-1.857A1.245,1.245,0,0,1,192.453,406h1.855a1.245,1.245,0,0,1,1.243,1.243V409.1A1.244,1.244,0,0,1,194.308,410.342Zm-1.855-3.112a.016.016,0,0,0-.013.013V409.1a.016.016,0,0,0,.013.013h1.855a.016.016,0,0,0,.013-.013v-1.858a.016.016,0,0,0-.013-.013Z" transform="translate(-187.859 -393.628)" fill="#fff"/>
  <path id="パス_246" data-name="パス 246" d="M362.506,410.342h-1.854a1.244,1.244,0,0,1-1.243-1.243v-1.857A1.244,1.244,0,0,1,360.653,406h1.854a1.244,1.244,0,0,1,1.243,1.243V409.1A1.244,1.244,0,0,1,362.506,410.342Zm-1.855-3.112a.015.015,0,0,0-.013.013V409.1a.015.015,0,0,0,.013.013h1.855a.015.015,0,0,0,.013-.013v-1.858a.015.015,0,0,0-.013-.013Z" transform="translate(-349.597 -393.628)" fill="#fff"/>
  <path id="パス_247" data-name="パス 247" d="M530.746,410.342h-1.854a1.244,1.244,0,0,1-1.243-1.243v-1.857A1.244,1.244,0,0,1,528.893,406h1.855a1.244,1.244,0,0,1,1.243,1.243V409.1A1.244,1.244,0,0,1,530.746,410.342Zm-1.854-3.112a.015.015,0,0,0-.013.013V409.1a.015.015,0,0,0,.013.013h1.855a.015.015,0,0,0,.013-.013v-1.858a.015.015,0,0,0-.013-.013Z" transform="translate(-511.373 -393.628)" fill="#fff"/>
  <path id="パス_248" data-name="パス 248" d="M698.908,410.342h-1.855a1.244,1.244,0,0,1-1.243-1.243v-1.857A1.244,1.244,0,0,1,697.053,406h1.855a1.244,1.244,0,0,1,1.243,1.243V409.1A1.244,1.244,0,0,1,698.908,410.342Zm-1.855-3.112a.015.015,0,0,0-.013.013V409.1a.015.015,0,0,0,.013.013h1.855a.015.015,0,0,0,.013-.013v-1.858a.015.015,0,0,0-.013-.013Z" transform="translate(-673.071 -393.628)" fill="#fff"/>
  <path id="パス_249" data-name="パス 249" d="M194.308,569.663h-1.855a1.244,1.244,0,0,1-1.243-1.243v-1.857a1.245,1.245,0,0,1,1.243-1.243h1.855a1.244,1.244,0,0,1,1.243,1.243v1.857A1.244,1.244,0,0,1,194.308,569.663Zm-1.855-3.112a.016.016,0,0,0-.013.013v1.855a.016.016,0,0,0,.013.013h1.855a.016.016,0,0,0,.013-.013v-1.857a.016.016,0,0,0-.013-.013Z" transform="translate(-187.859 -546.827)" fill="#fff"/>
  <path id="パス_250" data-name="パス 250" d="M362.506,569.663h-1.853a1.244,1.244,0,0,1-1.243-1.243v-1.857a1.244,1.244,0,0,1,1.243-1.243h1.853a1.244,1.244,0,0,1,1.243,1.243v1.857A1.244,1.244,0,0,1,362.506,569.663Zm-1.855-3.112a.015.015,0,0,0-.013.013v1.855a.015.015,0,0,0,.013.013h1.855a.015.015,0,0,0,.013-.013v-1.857a.015.015,0,0,0-.013-.013Z" transform="translate(-349.597 -546.827)" fill="#fff"/>
  <path id="パス_251" data-name="パス 251" d="M530.708,569.663h-1.853a1.244,1.244,0,0,1-1.245-1.243v-1.857a1.244,1.244,0,0,1,1.245-1.243h1.855a1.244,1.244,0,0,1,1.243,1.243v1.857A1.244,1.244,0,0,1,530.708,569.663Zm-1.855-3.112a.015.015,0,0,0-.013.013v1.855a.016.016,0,0,0,.013.013h1.855a.015.015,0,0,0,.013-.013v-1.857a.015.015,0,0,0-.013-.013Z" transform="translate(-511.334 -546.827)" fill="#fff"/>
  <path id="パス_252" data-name="パス 252" d="M698.908,569.663h-1.855a1.244,1.244,0,0,1-1.243-1.243v-1.857a1.244,1.244,0,0,1,1.243-1.243h1.855a1.244,1.244,0,0,1,1.243,1.243v1.857A1.244,1.244,0,0,1,698.908,569.663Zm-1.855-3.112a.015.015,0,0,0-.013.013v1.855a.015.015,0,0,0,.013.013h1.855a.015.015,0,0,0,.013-.013v-1.857a.015.015,0,0,0-.013-.013Z" transform="translate(-673.071 -546.827)" fill="#fff"/>
  <path id="パス_253" data-name="パス 253" d="M194.308,728.994h-1.855a1.245,1.245,0,0,1-1.243-1.243v-1.858a1.245,1.245,0,0,1,1.243-1.243h1.855a1.245,1.245,0,0,1,1.243,1.243v1.857A1.245,1.245,0,0,1,194.308,728.994Zm-1.855-3.114a.016.016,0,0,0-.013.014v1.857a.016.016,0,0,0,.013.014h1.855a.016.016,0,0,0,.013-.014v-1.858a.016.016,0,0,0-.013-.013Z" transform="translate(-187.859 -700.035)" fill="#fff"/>
  <path id="パス_254" data-name="パス 254" d="M362.506,728.994h-1.854a1.245,1.245,0,0,1-1.243-1.243v-1.858a1.244,1.244,0,0,1,1.243-1.243h1.854a1.244,1.244,0,0,1,1.244,1.243v1.857A1.244,1.244,0,0,1,362.506,728.994Zm-1.855-3.114a.016.016,0,0,0-.013.014v1.857a.016.016,0,0,0,.013.014h1.855a.016.016,0,0,0,.013-.014v-1.858a.015.015,0,0,0-.013-.013Z" transform="translate(-349.597 -700.035)" fill="#fff"/>
  <path id="パス_255" data-name="パス 255" d="M530.746,729h-1.854a1.245,1.245,0,0,1-1.243-1.243V725.9a1.244,1.244,0,0,1,1.243-1.243h1.855a1.244,1.244,0,0,1,1.241,1.243v1.857A1.245,1.245,0,0,1,530.746,729Zm-1.854-3.114a.015.015,0,0,0-.013.013v1.857a.016.016,0,0,0,.013.014h1.855a.016.016,0,0,0,.013-.014V725.9a.015.015,0,0,0-.013-.013Z" transform="translate(-511.373 -700.044)" fill="#fff"/>
  <path id="パス_256" data-name="パス 256" d="M698.908,728.994h-1.855a1.245,1.245,0,0,1-1.243-1.243v-1.858a1.244,1.244,0,0,1,1.243-1.243h1.855a1.244,1.244,0,0,1,1.243,1.243v1.857A1.245,1.245,0,0,1,698.908,728.994Zm-1.855-3.114a.016.016,0,0,0-.013.014v1.857a.016.016,0,0,0,.013.014h1.855a.016.016,0,0,0,.013-.014v-1.858a.015.015,0,0,0-.013-.013Z" transform="translate(-673.071 -700.035)" fill="#fff"/>
  <path id="パス_257" data-name="パス 257" d="M133.815,328.909h-29.2a.615.615,0,0,1,0-1.23h29.2a.615.615,0,0,1,0,1.23Z" transform="translate(-104 -318.317)" fill="#fff"/>
  <path id="パス_258" data-name="パス 258" d="M248.772,92.527h-.053a1.951,1.951,0,0,1-1.949-1.948V85.948A1.951,1.951,0,0,1,248.719,84h.053a1.951,1.951,0,0,1,1.949,1.948v4.631A1.951,1.951,0,0,1,248.772,92.527Zm-.053-7.3a.72.72,0,0,0-.719.719v4.631a.72.72,0,0,0,.719.719h.053a.72.72,0,0,0,.719-.719V85.948a.72.72,0,0,0-.719-.719Z" transform="translate(-241.284 -84)" fill="#fff"/>
  <path id="パス_259" data-name="パス 259" d="M450.592,92.527h-.053a1.951,1.951,0,0,1-1.949-1.948V85.948A1.951,1.951,0,0,1,450.539,84h.053a1.951,1.951,0,0,1,1.948,1.948v4.631A1.951,1.951,0,0,1,450.592,92.527Zm-.053-7.3a.72.72,0,0,0-.719.719v4.631a.72.72,0,0,0,.719.719h.053a.72.72,0,0,0,.719-.719V85.948a.72.72,0,0,0-.719-.719Z" transform="translate(-435.35 -84)" fill="#fff"/>
  <path id="パス_260" data-name="パス 260" d="M652.422,92.527h-.053a1.951,1.951,0,0,1-1.948-1.948V85.948A1.951,1.951,0,0,1,652.368,84h.053a1.951,1.951,0,0,1,1.949,1.948v4.631A1.951,1.951,0,0,1,652.422,92.527Zm-.053-7.3a.72.72,0,0,0-.719.719v4.631a.72.72,0,0,0,.719.719h.053a.72.72,0,0,0,.719-.719V85.948a.72.72,0,0,0-.719-.719Z" transform="translate(-629.425 -84)" fill="#fff"/>
</svg>
