<svg xmlns="http://www.w3.org/2000/svg" xmlns:xlink="http://www.w3.org/1999/xlink" width="15.109" height="20.72" viewBox="0 0 15.109 20.72">
  <defs>
    <clipPath id="clip-path">
      <rect id="長方形_943" data-name="長方形 943" width="15.11" height="20.72" fill="none"/>
    </clipPath>
  </defs>
  <g id="アイコン" transform="translate(-368 34.001)">
    <g id="グループ_150" data-name="グループ 150" transform="translate(368 -34)" clip-path="url(#clip-path)">
      <path id="パス_236" data-name="パス 236" d="M4.668,6.858c1-.6,1.816-1.139,2.1-1.3s.269-.593.031-.993S4.58.842,4.58.842C4.27.324,3.93-.206,3.448.081S2.61.579,1.37,1.32-1.515,6.208,2.795,13.443s8.744,7.767,9.985,7.03,1.6-.953,2.079-1.237.178-.838-.132-1.36c0,0-1.977-3.317-2.214-3.718s-.61-.613-.89-.447-1.143.628-2.143,1.223-2.114-.908-3.565-3.348S3.668,7.452,4.668,6.858" transform="translate(0 0)" fill="#6a6a6a"/>
    </g>
  </g>
</svg>
